<?xml version="1.0" encoding="utf-8"?>
<svg viewBox="0 0 290 89" xmlns="http://www.w3.org/2000/svg">
  <g id="SvgjsG1360" featurekey="rootContainer" transform="matrix(1, 0, 0, 1, 0, 1.7763568394002505e-15)" fill="#111111">
    <rect xmlns="http://www.w3.org/2000/svg" width="290" height="89" rx="10" ry="10"/>
  </g>
  <g id="SvgjsG1361" featurekey="nameFeature-0" transform="matrix(1.7801196575164797, 0, 0, 1.7801196575164797, 14.517231941223146, -3.212756156921386)" fill="#f6f6f6">
    <path d="M3.24 40 l0 -15.96 c0 -1.28 -0.04 -2.76 -0.16 -4.12 l7.44 0 c0.08 1.2 0.16 2.4 0.16 3.6 l0.08 0 c2 -2.68 5 -4.36 8.52 -4.36 c7.32 0 10.08 4.16 10.08 9.4 l0 11.44 l-7.68 0 l0 -10.28 c0 -3.2 -1.4 -5.44 -4.88 -5.44 c-3.16 0 -5.88 2.44 -5.88 6.88 l0 8.84 l-7.68 0 z M42.52 29.96 c0 4.12 2.8 6.4 6.4 6.4 s6.4 -2.28 6.4 -6.4 s-2.8 -6.4 -6.4 -6.4 s-6.4 2.28 -6.4 6.4 z M34.36 29.96 c0 -4.76 3.24 -10.8 14.56 -10.8 s14.56 6.04 14.56 10.8 s-3.24 10.8 -14.56 10.8 s-14.56 -6.04 -14.56 -10.8 z M65.88000000000001 24.8 l0 -4.88 l4.92 0 l0 -4.08 l7.68 -2.8 l0 6.88 l6.48 0 l0 4.88 l-6.48 0 l0 6.28 c0 2.8 0.36 4.28 3.44 4.28 c0.72 0 1.84 -0.08 3.04 -0.24 l0 4.88 c-0.72 0.12 -2.76 0.48 -5.16 0.48 c-5.88 0 -9 -2.28 -9 -7.16 l0 -8.52 l-4.92 0 z M95.80000000000001 27.68 l9.92 0 c-0.08 -3.28 -2.24 -4.36 -4.96 -4.36 c-3.56 0 -4.6 2.28 -4.96 4.36 z M113.88000000000001 31.84 l-18.2 0 c0.16 3.12 2 4.76 5.24 4.76 c3.36 0 3.96 -1.36 4.36 -2.72 l8.16 0 c-1.6 6.36 -7.08 6.88 -12.64 6.88 c-6.96 0 -13.04 -2.56 -13.04 -10.48 c0 -7.76 6.04 -11.12 12.92 -11.12 c9.8 0 13.16 4.84 13.2 12.68 z M135.36 32.480000000000004 l8.16 0 c-0.72 6.52 -7.2 8.28 -13.12 8.28 c-5.96 0 -13 -2.72 -13 -10.72 c0 -8.04 6.56 -10.88 13.52 -10.88 c5.48 0 11.64 1.68 12.36 7.88 l-7.92 0 c-0.44 -2.48 -1.96 -3.48 -4.44 -3.48 c-3.44 0 -5.36 2.68 -5.36 6.36 c0 3.52 1.6 6.44 5.36 6.44 c2.52 0 4.36 -1.28 4.44 -3.88 z"/>
  </g>
</svg>